<svg xmlns="http://www.w3.org/2000/svg" xmlns:xlink="http://www.w3.org/1999/xlink" version="1.1" id="Layer_1" x="0px" y="0px" viewBox="0 0 64 64" style="enable-background:new 0 0 64 64;" xml:space="preserve" width="128" height="128">
<rect x="18" y="23" style="fill:#E3F2FF;" width="28" height="26"/>
<path style="fill:#FAEFDE;" d="M56,53v-3c0-0.552-0.448-1-1-1H9c-0.552,0-1,0.448-1,1v3H5c-0.552,0-1,0.448-1,1v5h56v-5  c0-0.552-0.448-1-1-1H56z"/>
<rect x="12" y="23" style="fill:#FAEFDE;" width="6" height="26"/>
<rect x="46" y="23" style="fill:#FAEFDE;" width="6" height="26"/>
<rect x="12" y="23" style="fill:#EFD8BE;" width="6" height="3"/>
<rect x="46" y="23" style="fill:#EFD8BE;" width="6" height="3"/>
<path style="fill:#FAEFDE;" d="M32.73,5.29c-0.472-0.187-0.998-0.187-1.47,0L4.922,15.592C3.651,16.109,4.021,18,5.393,18H8v4  c0,0.552,0.448,1,1,1h46c0.552,0,1-0.448,1-1v-4h2.605c1.372,0,1.742-1.891,0.471-2.408L32.73,5.29z"/>
<circle style="fill:#E3F2FF;" cx="32" cy="12" r="2"/>
<rect x="4" y="54" style="fill:#EFD8BE;" width="56" height="5"/>
<path style="fill:#EFD8BE;" d="M8,18h48v4c0,0.552-0.448,1-1,1H9c-0.552,0-1-0.448-1-1V18z"/>
<rect x="18" y="23" style="fill:#C5E4FA;" width="28" height="3"/>
<path style="fill:#8D6C9F;" d="M12,52c-0.552,0-1,0.448-1,1v2c0,0.552,0.448,1,1,1s1-0.448,1-1v-2C13,52.448,12.552,52,12,52z"/>
<path style="fill:#8D6C9F;" d="M17,52c-0.552,0-1,0.448-1,1v2c0,0.552,0.448,1,1,1s1-0.448,1-1v-2C18,52.448,17.552,52,17,52z"/>
<path style="fill:#8D6C9F;" d="M22,52c-0.552,0-1,0.448-1,1v2c0,0.552,0.448,1,1,1s1-0.448,1-1v-2C23,52.448,22.552,52,22,52z"/>
<path style="fill:#8D6C9F;" d="M27,52c-0.552,0-1,0.448-1,1v2c0,0.552,0.448,1,1,1s1-0.448,1-1v-2C28,52.448,27.552,52,27,52z"/>
<path style="fill:#8D6C9F;" d="M32,52c-0.552,0-1,0.448-1,1v2c0,0.552,0.448,1,1,1s1-0.448,1-1v-2C33,52.448,32.552,52,32,52z"/>
<path style="fill:#8D6C9F;" d="M37,52c-0.552,0-1,0.448-1,1v2c0,0.552,0.448,1,1,1s1-0.448,1-1v-2C38,52.448,37.552,52,37,52z"/>
<path style="fill:#8D6C9F;" d="M42,52c-0.552,0-1,0.448-1,1v2c0,0.552,0.448,1,1,1s1-0.448,1-1v-2C43,52.448,42.552,52,42,52z"/>
<path style="fill:#8D6C9F;" d="M47,52c-0.552,0-1,0.448-1,1v2c0,0.552,0.448,1,1,1s1-0.448,1-1v-2C48,52.448,47.552,52,47,52z"/>
<path style="fill:#8D6C9F;" d="M52,52c-0.552,0-1,0.448-1,1v2c0,0.552,0.448,1,1,1s1-0.448,1-1v-2C53,52.448,52.552,52,52,52z"/>
<path style="fill:#8D6C9F;" d="M32,9c-1.657,0-3,1.343-3,3s1.343,3,3,3c1.657,0,3-1.343,3-3S33.657,9,32,9z M32,13.25  c-0.69,0-1.25-0.56-1.25-1.25s0.56-1.25,1.25-1.25c0.69,0,1.25,0.56,1.25,1.25S32.69,13.25,32,13.25z"/>
<path style="fill:#8D6C9F;" d="M48,19h4c0.552,0,1-0.448,1-1s-0.448-1-1-1h-4c-0.552,0-1,0.448-1,1S47.448,19,48,19z"/>
<path style="fill:#8D6C9F;" d="M59,52h-2v-2c0-1.105-0.895-2-2-2h-2V24h2c1.105,0,2-0.895,2-2v-3h1.738  c1.093,0,2.004-0.752,2.212-1.826c0.208-1.074-0.451-2.13-1.462-2.549C53.025,11.944,33.503,4.287,33.176,4.184l-0.001,0  c-0.38-0.119-0.772-0.181-1.17-0.184c-0.435-0.021-0.791,0.055-1.169,0.17c-0.299,0.09-19.748,7.713-26.34,10.455  c-1.01,0.42-1.671,1.476-1.463,2.55C3.24,18.249,4.152,19,5.244,19c0,0,0.645,0,1.756,0v3c0,1.105,0.895,2,2,2h2v24H9  c-1.105,0-2,0.895-2,2v2H5c-1.105,0-2,0.895-2,2v5c0,0.552,0.448,1,1,1h56c0.552,0,1-0.448,1-1v-5C61,52.895,60.105,52,59,52z M9,22  v-3c9.686,0,34.812,0,35,0c0.552,0,1-0.448,1-1c0-0.552-0.448-1-1-1c-0.233,0-38.756,0-38.756,0c-0.057,0-0.207,0-0.248-0.203  c-0.039-0.198,0.097-0.255,0.147-0.276c6.83-2.847,26.201-10.408,26.272-10.437C31.6,6.028,31.791,6,31.983,6  c0.004,0,0.007,0,0.01,0c0.188,0.001,0.374,0.029,0.556,0.083c0.763,0.296,19.545,7.634,26.29,10.438  c0.051,0.021,0.187,0.078,0.147,0.276C58.945,17,58.795,17,58.738,17H56c-0.552,0-1,0.448-1,1v4H9z M51,24v24h-4V24H51z M45,24v24  H19V24H45z M17,24v24h-4V24H17z M59,58H5v-4h3c0.552,0,1-0.448,1-1v-3h46v3c0,0.552,0.448,1,1,1h3V58z"/>
<path style="fill:#8D6C9F;" d="M33,35c0,0,0-1.814,0-2c0-0.552-0.448-1-1-1s-1,0.448-1,1c0,0.186,0,2,0,2c-1.103,0-2-0.897-2-2  c0-1.103,0.897-2,2-2h2c1.103,0,2,0.897,2,2c0,0.552,0.447,1,1,1s1-0.448,1-1c0-2.206-1.794-4-4-4v-1c0-0.552-0.447-1-1-1  s-1,0.448-1,1v1c-2.206,0-4,1.794-4,4s1.794,4,4,4h2c1.103,0,2,0.897,2,2c0,1.103-0.897,2-2,2v-2c0-0.552-0.447-1-1-1s-1,0.448-1,1  v2c-1.103,0-2-0.897-2-2c0-0.552-0.447-1-1-1s-1,0.448-1,1c0,2.206,1.794,4,4,4v1c0,0.552,0.447,1,1,1s1-0.448,1-1v-1  c2.206,0,4-1.794,4-4S35.206,35,33,35z"/>
</svg>